HIERARCHY
ROOT hip
{
	OFFSET 0.000000 0.000000 0.000000 
	CHANNELS 6 Xposition Yposition Zposition Xrotation Zrotation Yrotation
	JOINT abdomen
	{
		OFFSET 0.000000 3.402643 0.000000 
		CHANNELS 3 Xrotation Zrotation Yrotation
		JOINT chest
		{
			OFFSET 0.000000 8.438565 -0.680529 
			CHANNELS 3 Xrotation Zrotation Yrotation
			JOINT neck
			{
				OFFSET 0.000000 10.207942 -0.272212 
				CHANNELS 3 Xrotation Zrotation Yrotation
				JOINT head
				{
					OFFSET 0.000000 3.130431 0.000000 
					CHANNELS 3 Xrotation Zrotation Yrotation
					End Site
					{
						OFFSET 0.000000 3.130435 0.000000 
					}
				}
			}
			JOINT lCollar
			{
				OFFSET 3.470700 6.669187 -0.816635 
				CHANNELS 3 Yrotation Zrotation Xrotation
				JOINT lShldr
				{
					OFFSET 3.198488 0.000000 0.000000 
					CHANNELS 3 Zrotation Yrotation Xrotation
					JOINT lForeArm
					{
						OFFSET 10.139888 0.000000 0.000000 
						CHANNELS 3 Yrotation Zrotation Xrotation
						JOINT lHand
						{
							OFFSET 8.370511 0.000000 0.000000 
							CHANNELS 3 Zrotation Yrotation Xrotation
							End Site
							{
								OFFSET 4.083176 0.000000 0.000000 
							}
						}
					}
				}
			}
			JOINT rCollar
			{
				OFFSET -3.470700 6.669187 -0.816635 
				CHANNELS 3 Yrotation Zrotation Xrotation
				JOINT rShldr
				{
					OFFSET -3.198488 0.000000 0.000000 
					CHANNELS 3 Zrotation Yrotation Xrotation
					JOINT rForeArm
					{
						OFFSET -10.139888 0.000000 0.000000 
						CHANNELS 3 Yrotation Zrotation Xrotation
						JOINT rHand
						{
							OFFSET -8.370511 0.000000 0.000000 
							CHANNELS 3 Zrotation Yrotation Xrotation
							End Site
							{
								OFFSET -4.083176 0.000000 0.000000 
							}
						}
					}
				}
			}
		}
	}
	JOINT lThigh
	{
		OFFSET 5.308129 -1.633274 1.361059 
		CHANNELS 3 Xrotation Zrotation Yrotation
		JOINT lShin
		{
			OFFSET -2.041588 -20.007561 0.000000 
			CHANNELS 3 Xrotation Zrotation Yrotation
			JOINT lFoot
			{
				OFFSET 0.000000 -19.190928 -1.224953 
				CHANNELS 3 Xrotation Yrotation Zrotation
				End Site
				{
					OFFSET 0.000000 -2.449906 4.627600 
				}
			}
		}
	}
	JOINT rThigh
	{
		OFFSET -5.308129 -1.633274 1.361059 
		CHANNELS 3 Xrotation Zrotation Yrotation
		JOINT rShin
		{
			OFFSET 2.041588 -20.007561 0.000000 
			CHANNELS 3 Xrotation Zrotation Yrotation
			JOINT rFoot
			{
				OFFSET 0.000000 -19.190928 -1.224953 
				CHANNELS 3 Xrotation Yrotation Zrotation
				End Site
				{
					OFFSET 0.000000 -2.449906 4.627600 
				}
			}
		}
	}
}
MOTION
Frames: 16
Frame Time: 0.033333
16.213125 133.338440 11.559654 3.593750 24.472656 106.693504 34.483250 -14.312627 -14.406384 -15.615234 17.656250 -1.103516 -9.452820 8.447587 5.844093 42.333988 -7.568360 6.453792 2.000000 -2.000000 0.000000 -113.925781 -70.058594 52.305275 -80.283966 -0.827701 13.487277 -49.582359 26.448908 -28.962242 -2.000000 2.000000 0.000000 89.355469 -1.738281 12.597361 49.523769 -2.173829 61.928986 4.648583 -10.316349 -1.195542 -71.024887 8.486413 12.750896 69.747986 -1.064123 -3.916963 0.970822 -21.249197 -9.969612 -59.048439 -20.484106 -26.292149 69.164284 1.005815 3.799977 -5.891090 -0.561966 10.168352 
17.654224 132.037170 11.219657 3.447266 25.029074 106.537186 34.766476 -14.324218 -14.431458 -15.488282 17.529297 -1.074218 -9.519052 8.739136 7.195486 42.460941 -8.339843 7.664598 2.000000 -2.000000 0.000000 -115.800774 -70.000000 53.838478 -80.041061 -0.835123 13.370336 -49.471531 26.375294 -28.809860 -2.000000 2.000000 0.000000 88.964844 -2.236328 13.261339 51.934582 -2.147919 61.411732 6.423384 -11.500239 -1.680299 -73.332787 8.688974 12.248023 74.442352 -0.730107 -4.004072 -3.170275 -20.409399 -11.422726 -60.817829 -20.622728 -25.504238 73.594757 0.683603 3.884490 -9.271151 -1.742287 9.937515 
19.047428 130.783173 10.898820 3.349610 25.742189 106.449554 35.190880 -14.315891 -14.508975 -15.429688 17.363281 -1.132813 -9.475344 8.922334 8.752129 42.470703 -9.130858 9.109778 2.000000 -2.000000 0.000000 -117.519524 -69.853516 55.117786 -79.777802 -0.837597 13.331352 -49.426544 26.158070 -28.586086 -2.000000 2.000000 0.000000 88.535156 -2.724609 13.856957 54.273415 -2.116877 60.796677 8.194922 -12.560447 -2.216033 -75.818504 8.915553 11.708212 79.387985 -0.379110 -4.091290 -6.625530 -19.797247 -12.533409 -62.820938 -20.829042 -24.538162 78.442482 0.332136 3.971599 -12.241574 -2.985014 9.604887 
20.375818 129.597595 10.602613 3.281250 26.582033 106.400856 35.816742 -14.305898 -14.648138 -15.390626 17.177734 -1.250000 -9.375911 8.952673 10.551492 42.402344 -9.853515 10.771486 2.000000 -2.000000 0.000000 -119.140633 -69.609375 56.162113 -79.514450 -0.839452 13.302116 -49.443943 25.855738 -28.330982 -2.000000 2.000000 0.000000 88.046875 -3.251953 14.374446 56.480690 -2.079083 60.054951 9.906970 -13.437701 -2.772869 -78.320435 9.141064 11.086725 84.345001 -0.046946 -4.092210 -9.203519 -19.489563 -13.405100 -64.935570 -21.108103 -23.512373 83.514755 -0.029346 3.999677 -14.700503 -4.175445 9.150644 
21.621233 128.499115 10.338127 3.291016 27.578125 106.401009 36.550739 -14.334070 -14.853346 -15.322266 16.992189 -1.357422 -9.306719 8.750280 12.525781 42.255856 -10.468749 12.607423 2.000000 -2.000000 0.000000 -120.693359 -69.296875 57.021484 -79.251289 -0.842543 13.253387 -49.464046 25.504642 -28.056248 -2.000000 2.000000 0.000000 87.539063 -3.720703 14.725932 58.498802 -2.045115 59.205521 11.522342 -14.131189 -3.315954 -80.712189 9.365437 10.511844 89.124687 0.263536 -4.105325 -11.029694 -19.378170 -13.951237 -67.049423 -21.415251 -22.542234 88.575493 -0.370905 4.044138 -16.421835 -5.351978 8.666119 
22.765377 127.506104 10.113578 3.320313 28.623047 106.406250 37.352932 -14.480028 -15.135809 -15.195313 16.865232 -1.416016 -9.327443 8.356905 14.628257 42.109379 -10.986327 14.578219 2.000000 -2.000000 0.000000 -122.353508 -68.876953 57.861988 -78.919052 -0.841307 13.272879 -49.496925 25.095470 -27.712727 -2.000000 2.000000 0.000000 86.992188 -4.052734 14.882810 60.239803 -1.985029 58.239861 13.070921 -14.650604 -3.846148 -82.923698 9.597821 9.982759 93.580391 0.614592 -4.079344 -12.250041 -19.365179 -14.360758 -69.070457 -21.746603 -21.661022 93.412003 -0.712754 4.034803 -17.520374 -6.387582 8.202594 
23.789104 126.629799 9.936923 3.320313 29.736328 106.406250 38.075752 -14.790995 -15.453284 -14.941406 16.875000 -1.315525 -9.492152 7.772766 16.729326 41.972660 -11.416016 16.550804 2.000000 -2.000000 0.000000 -124.140625 -68.330078 58.798824 -78.526352 -0.828938 13.467787 -49.501209 24.508966 -27.208483 -2.000000 2.000000 0.000000 86.503906 -4.238281 14.774671 61.685467 -1.939182 57.185482 14.523941 -15.053743 -4.352966 -84.899643 9.823481 9.463841 97.549316 0.877214 -4.066929 -13.081196 -19.358326 -14.643765 -70.893944 -22.027727 -20.964811 97.780930 -1.025437 3.986124 -18.097273 -7.271574 7.900875 
24.674362 125.876785 9.812644 3.261719 30.764275 106.439377 38.664772 -15.288383 -15.806172 -14.560546 17.031250 -1.042062 -9.763593 7.067887 18.834719 41.796875 -11.796874 18.496094 2.000000 -2.000000 0.000000 -125.966805 -67.597656 59.785156 -78.013535 -0.797987 13.955198 -49.540958 23.796999 -26.609339 -2.000000 2.000000 0.000000 86.074219 -4.238281 14.423107 62.796375 -1.877108 56.024467 15.881726 -15.359706 -4.816791 -86.616264 10.077067 8.971200 100.994240 1.062818 -4.022859 -13.678288 -19.211922 -14.822031 -72.409271 -22.302639 -20.524168 101.506950 -1.298756 3.904069 -18.246655 -7.794837 7.660895 
25.404743 125.249527 9.742105 3.164063 31.757814 106.450455 39.097710 -15.943876 -16.210472 -14.082032 17.333984 -0.634766 -10.116459 6.223975 20.888283 41.494144 -12.207030 20.388561 2.000000 -2.000000 0.000000 -127.695320 -66.748055 60.712891 -77.469414 -0.751482 14.686235 -49.657543 23.078835 -26.026640 -2.000000 2.000000 0.000000 85.693359 -4.111328 13.935548 63.574532 -1.811015 54.805016 17.143427 -15.636427 -5.286368 -88.049294 10.310643 8.631901 103.820877 1.296632 -3.981652 -14.140364 -18.896151 -14.931734 -73.588684 -22.564543 -20.162313 104.539764 -1.504024 3.867939 -18.153654 -8.002679 7.646877 
25.966679 124.745087 9.723570 2.978516 32.607426 106.460342 39.362972 -16.709188 -16.630613 -13.593750 17.773438 -0.114207 -10.521756 5.244975 22.916903 41.025391 -12.626953 22.214663 2.000000 -2.000000 0.000000 -129.101563 -65.800781 61.475471 -76.895782 -0.698674 15.514594 -49.874592 22.453375 -25.615602 -2.000000 2.000000 0.000000 85.341797 -3.867188 13.378248 64.010399 -1.731052 53.527390 18.222473 -15.901360 -5.678393 -89.190552 10.505519 8.292504 106.026581 1.432635 -3.921396 -14.454186 -18.488863 -14.949510 -74.388557 -22.827700 -20.000530 106.821800 -1.660041 3.833339 -17.822308 -7.711690 7.772180 
26.351831 124.356430 9.752930 2.695313 33.349609 106.455078 39.464691 -17.526190 -17.056089 -13.085938 18.281250 0.449219 -11.000647 4.130676 24.920506 40.371094 -13.007813 24.033209 2.000000 -2.000000 0.000000 -130.185547 -64.853516 62.158203 -76.304024 -0.651373 16.255363 -50.189716 21.969425 -25.408016 -2.000000 2.000000 0.000000 85.000000 -3.554688 12.850957 64.104538 -1.637674 52.201920 19.071711 -16.123625 -6.037023 -90.048111 10.732403 8.035698 107.578148 1.520522 -3.893142 -14.679634 -17.980581 -14.898864 -74.862091 -23.055820 -19.950911 108.354568 -1.757706 3.773113 -17.323719 -6.954905 8.078692 
26.555853 124.073288 9.824961 2.304688 33.974606 106.445305 39.435825 -18.328520 -17.436142 -12.607423 18.798828 1.005860 -11.513734 2.884819 26.926069 39.560547 -13.291015 25.818071 2.000000 -2.000000 0.000000 -130.957031 -63.984371 62.812504 -75.645485 -0.632848 16.851070 -50.659145 21.483013 -25.312275 -2.000000 2.000000 0.000000 84.609375 -3.164063 12.479929 63.834625 -1.554518 50.728985 19.613966 -16.330303 -6.288123 -90.585800 10.947294 7.862162 108.493454 1.601463 -3.895414 -14.787793 -17.380215 -14.782546 -74.959465 -23.202190 -19.958693 109.144836 -1.806605 3.757267 -16.637802 -5.759068 8.535700 
26.578251 123.882957 9.932694 1.855469 34.472656 106.455078 39.262794 -19.088858 -17.760553 -12.148438 19.287109 1.562500 -12.073706 1.543220 28.908728 38.583988 -13.437500 27.585623 2.000000 -2.000000 0.000000 -131.503906 -63.222656 63.506908 -74.832390 -0.588404 17.239754 -51.361561 20.792673 -25.192968 -2.000000 2.000000 0.000000 84.140625 -2.646484 12.285156 63.220634 -1.461230 49.100204 19.869041 -16.501785 -6.417993 -90.832870 11.140870 7.782177 108.757347 1.638095 -3.854504 -14.730283 -16.846613 -14.623530 -74.784584 -23.212589 -20.018774 109.242348 -1.806480 3.763580 -15.885610 -4.262513 9.029152 
26.420628 123.772606 10.068667 1.308594 34.873047 106.470428 38.992073 -19.731304 -18.008068 -11.718750 19.707031 2.041016 -12.669687 0.138563 30.892023 37.519535 -13.437500 29.333668 2.000000 -2.000000 0.000000 -131.884766 -62.578125 64.297974 -73.796249 -0.597910 17.396921 -52.266342 19.760309 -24.839796 -2.000000 2.000000 0.000000 83.583984 -2.070312 12.304687 62.236656 -1.363205 47.413261 19.821323 -16.490999 -6.401025 -90.808838 11.376847 7.720193 108.416725 1.579638 -3.881333 -14.488284 -16.330463 -14.426239 -74.324104 -23.074837 -20.063772 108.666496 -1.786975 3.763125 -15.144741 -2.612188 9.536528 
26.088842 123.731316 10.226415 0.703125 35.175781 106.474609 38.597828 -20.292343 -18.195246 -11.308594 20.039064 2.480469 -13.259663 -1.319916 32.795750 36.396484 -13.271483 31.044924 2.000000 -2.000000 0.000000 -132.246094 -62.050785 65.263672 -72.536911 -0.602279 17.328701 -53.263546 18.283091 -24.021372 -2.000000 2.000000 0.000000 82.919922 -1.425781 12.558351 60.983154 -1.246669 45.766300 19.490187 -16.288622 -6.216684 -90.517181 11.611253 7.813669 107.489510 1.549388 -3.878115 -14.010480 -16.026690 -14.233416 -73.641434 -22.724066 -20.140886 107.436417 -1.699126 3.821177 -14.444322 -0.959248 10.009072 
25.591721 123.750336 10.401449 0.029297 35.361328 106.519318 38.139473 -20.729301 -18.319864 -10.947266 20.302738 2.841797 -13.821998 -2.817363 34.657368 35.214848 -12.968750 32.654064 2.000000 -2.000000 0.000000 -132.626953 -61.611332 66.318367 -71.015099 -0.618502 17.075323 -54.171486 16.498888 -22.615080 -2.000000 2.000000 0.000000 82.109375 -0.791014 13.076200 59.500782 -1.155458 44.235443 19.019808 -15.868592 -5.925621 -90.000511 11.901480 7.944831 106.026230 1.432613 -3.930919 -13.205998 -16.002363 -13.987072 -72.733398 -22.147697 -20.227463 105.572823 -1.591318 3.852224 -13.874768 0.627440 10.396066 
